<?xml version="1.0" encoding="utf-8"?>
<!-- Generator: Adobe Illustrator 21.0.0, SVG Export Plug-In . SVG Version: 6.00 Build 0)  -->
<svg version="1.1" id="svg2103" xmlns="http://www.w3.org/2000/svg" xmlns:xlink="http://www.w3.org/1999/xlink" x="0px" y="0px"
	 viewBox="0 0 17 21" style="enable-background:new 0 0 17 21;" xml:space="preserve">
<path d="M16.2,3.1c-0.2-1.2-1-1.6-2.1-2.1C13,0.6,10.4,0,8.5,0C6.6,0,4,0.6,2.9,1C1.8,1.5,1.1,1.9,0.8,3.1L0,9.5v8.8h1.4v1.4
	c0,1.7,2.5,1.7,2.5,0v-1.4h4.5h0h4.7v1.4c0,1.7,2.5,1.7,2.5,0v-1.4H17V9.5L16.2,3.1z M5,1.6h3.4H12c0.7,0,0.7,1,0,1H8.4H5
	C4.3,2.7,4.3,1.6,5,1.6z M2.7,15.6c-0.6,0-1.2-0.5-1.2-1.2c0-0.7,0.5-1.2,1.2-1.2c0.6,0,1.2,0.5,1.2,1.2C3.8,15,3.3,15.6,2.7,15.6z
	 M8.4,10.2H2.2c-0.6,0-0.7-0.4-0.7-0.9l0.6-4.7c0.1-0.6,0.3-0.9,1-0.9h5.3h5.4c0.7,0,0.9,0.4,1,0.9l0.6,4.7c0.1,0.4-0.1,0.9-0.7,0.9
	H8.4z M14.3,15.6c-0.6,0-1.2-0.5-1.2-1.2c0-0.7,0.5-1.2,1.2-1.2c0.6,0,1.2,0.5,1.2,1.2C15.5,15,15,15.6,14.3,15.6z"/>
</svg>
