<?xml version="1.0" encoding="utf-8"?>
<!-- Generator: Adobe Illustrator 21.0.0, SVG Export Plug-In . SVG Version: 6.00 Build 0)  -->
<svg version="1.1" id="Layer_1" xmlns="http://www.w3.org/2000/svg" xmlns:xlink="http://www.w3.org/1999/xlink" x="0px" y="0px"
	 viewBox="0 0 18.6 18.6" style="enable-background:new 0 0 18.6 18.6;" xml:space="preserve">
<path d="M11.4,9.3l6.7-6.7c0.6-0.6,0.6-1.5,0-2.1s-1.5-0.6-2.1,0L9.3,7.2L2.6,0.4C2-0.1,1-0.1,0.4,0.4C-0.1,1-0.1,2,0.4,2.6l6.7,6.7
	L0.4,16c-0.6,0.6-0.6,1.5,0,2.1s1.5,0.6,2.1,0l6.7-6.7l6.7,6.7c0.6,0.6,1.5,0.6,2.1,0s0.6-1.5,0-2.1L11.4,9.3z"/>
</svg>
