<?xml version="1.0" encoding="utf-8"?>
<!-- Generator: Adobe Illustrator 21.0.0, SVG Export Plug-In . SVG Version: 6.00 Build 0)  -->
<svg version="1.1" id="Layer_1" xmlns="http://www.w3.org/2000/svg" xmlns:xlink="http://www.w3.org/1999/xlink" x="0px" y="0px"
	 viewBox="0 0 36 36" style="enable-background:new 0 0 36 36;" xml:space="preserve">
<style type="text/css">
	.st0{fill:#010101;}
</style>
<path class="st0" d="M18,0C11.6,0,5.2,1.1,2.8,3.4C0.9,5.3,0.2,8.7,0,10.8c0,0,0,0.2,0,0.3c0,0.8,0.7,1.5,1.5,1.5
	c0.1,0,3.7-0.3,5.9-0.5c0.1,0,0.1,0,0.2,0c0.8,0,1.5-0.7,1.5-1.5l0-3C9,6.7,9.7,6,10.7,6h14.7C26.2,6,27,6.7,27,7.7l0,3
	c0,0.8,0.7,1.5,1.5,1.5c0.1,0,0.1,0,0.2,0c2.2,0.2,5.8,0.5,5.9,0.5c0.8,0,1.5-0.7,1.5-1.5c0-0.1,0-0.3,0-0.3
	c-0.2-2.1-0.9-5.5-2.8-7.4C30.8,1.1,24.4,0,18,0z M18,19.5c-1.7,0-3,1.3-3,3s1.3,3,3,3c1.7,0,3-1.3,3-3S19.7,19.5,18,19.5z
	 M15.7,12.7v-1.9c0-1-0.8-1.9-1.9-1.9S12,9.8,12,10.9v1.9L1.9,23.6c-0.7,0.7-1.1,1.6-1.1,2.7v3c0,1.7,1.3,3,3,3h0.8v1.9
	c0,1,0.8,1.9,1.9,1.9s1.9-0.8,1.9-1.9v-1.9h19.5v1.9c0,1,0.8,1.9,1.9,1.9c1,0,1.9-0.8,1.9-1.9v-1.9h0.8c1.7,0,3-1.3,3-3v-3
	c0-1.1-0.4-2-1.1-2.7L24,12.7v-1.9c0-1-0.8-1.9-1.9-1.9s-1.9,0.8-1.9,1.9v1.9H15.7z M18,16.5c3.3,0,6,2.7,6,6c0,3.3-2.7,6-6,6
	c-3.3,0-6-2.7-6-6C12,19.2,14.7,16.5,18,16.5z"/>
</svg>
