<?xml version="1.0" encoding="utf-8"?>
<!-- Generator: Adobe Illustrator 21.0.0, SVG Export Plug-In . SVG Version: 6.00 Build 0)  -->
<svg version="1.1" id="Layer_1" xmlns="http://www.w3.org/2000/svg" xmlns:xlink="http://www.w3.org/1999/xlink" x="0px" y="0px"
	 viewBox="0 0 36 26" style="enable-background:new 0 0 36 26;" xml:space="preserve">
<style type="text/css">
	.st0{fill:#010101;}
</style>
<path class="st0" d="M0,23c0,1.6,1.3,3,3,3h30c1.7,0,3-1.3,3-3V3c0-1.6-1.3-3-3-3H3C1.3,0,0,1.3,0,3L0,23L0,23z M11,13L4.2,6.2
	c-0.6-0.6-0.6-1.5,0-2c0.6-0.6,1.5-0.6,2.1,0l11,10.9c0.4,0.4,1.2,0.4,1.6,0l11-10.9c0.6-0.6,1.5-0.6,2.1,0c0.6,0.6,0.6,1.5,0,2
	L25,13l6.9,6.8c0.6,0.6,0.6,1.5,0,2c-0.6,0.6-1.5,0.6-2.1,0l-6.9-6.8c0,0-2.1,2.2-2.5,2.5c-0.6,0.6-1.4,1-2.4,1
	c-0.9,0-1.8-0.4-2.4-1c-0.4-0.4-2.5-2.5-2.5-2.5l-6.9,6.8c-0.6,0.6-1.5,0.6-2.1,0c-0.6-0.6-0.6-1.5,0-2L11,13z"/>
</svg>
