<?xml version="1.0" encoding="utf-8"?>
<!-- Generator: Adobe Illustrator 21.0.0, SVG Export Plug-In . SVG Version: 6.00 Build 0)  -->
<svg version="1.1" id="Layer_1" xmlns="http://www.w3.org/2000/svg" xmlns:xlink="http://www.w3.org/1999/xlink" x="0px" y="0px"
	 viewBox="0 0 28 43" style="enable-background:new 0 0 28 43;" xml:space="preserve">
<style type="text/css">
	.st0{fill:#010101;}
</style>
<path class="st0" d="M11.7,13.9c0-1.2,1-2.2,2.3-2.2s2.3,1,2.3,2.2c0,1.2-1,2.2-2.3,2.2C12.8,16.1,11.7,15.1,11.7,13.9z M14,8.1
	c-3.2,0-5.9,2.6-5.9,5.8s2.6,5.8,5.9,5.8c3.2,0,5.9-2.6,5.9-5.8C19.9,10.7,17.2,8.1,14,8.1z M0,13.6c0,9.1,10.9,16.2,11.7,26.7v0.4
	c0,1.2,1,2.2,2.3,2.2s2.3-1,2.3-2.2v-0.4C17.2,29.8,28,22.8,28,13.6C28,6.1,21.7,0,14,0C6.3,0,0,6.1,0,13.6z M14,4.5
	c5.2,0,9.5,4.2,9.5,9.4c0,5.2-4.2,9.4-9.5,9.4s-9.5-4.2-9.5-9.4C4.5,8.7,8.8,4.5,14,4.5z"/>
</svg>
