<?xml version="1.0" encoding="utf-8"?>
<!-- Generator: Adobe Illustrator 21.0.0, SVG Export Plug-In . SVG Version: 6.00 Build 0)  -->
<svg version="1.1" id="Layer_1" xmlns="http://www.w3.org/2000/svg" xmlns:xlink="http://www.w3.org/1999/xlink" x="0px" y="0px"
	 viewBox="0 0 11 21" style="enable-background:new 0 0 11 21;" xml:space="preserve">
<g>
	<path d="M7.8,21H2.2v-9.8H0V6.4h2.1C2,4.2,2.4,2.6,3.4,1.5C4.2,0.6,5.5,0.1,7.1,0L11,0v4.7H7.9C7.8,4.9,7.7,5.5,7.7,6.4H11v4.8H7.8
		V21z M3.4,19.9h3.1v-9.8h3.2V7.5H6.5l0-0.6c0-1.5,0-2.9,0.8-3.4l0.2-0.1h2.3V1.1H7.1C5.9,1.2,4.9,1.6,4.3,2.3
		C3.5,3.2,3.2,4.8,3.4,6.9l0.1,0.6H1.2v2.6h2.2V19.9z"/>
</g>
</svg>
