<?xml version="1.0" encoding="utf-8"?>
<!-- Generator: Adobe Illustrator 21.0.0, SVG Export Plug-In . SVG Version: 6.00 Build 0)  -->
<svg version="1.1" id="Layer_1" xmlns="http://www.w3.org/2000/svg" xmlns:xlink="http://www.w3.org/1999/xlink" x="0px" y="0px"
	 viewBox="0 0 12 12" style="enable-background:new 0 0 12 12;" xml:space="preserve">
<style type="text/css">
	.st0{fill:#606161;}
</style>
<path class="st0" d="M6.9,6l4.9-4.9c0.2-0.2,0.2-0.6,0-0.9s-0.6-0.2-0.9,0L6,5.1L1.1,0.2c-0.2-0.2-0.6-0.2-0.9,0s-0.2,0.6,0,0.9
	L5.1,6l-4.9,4.9c-0.2,0.2-0.2,0.6,0,0.9v0c0.2,0.2,0.6,0.2,0.9,0L6,6.9l4.9,4.9c0.2,0.2,0.6,0.2,0.9,0v0c0.2-0.2,0.2-0.6,0-0.9
	L6.9,6z"/>
</svg>
