<svg width="71" height="48" xmlns="http://www.w3.org/2000/svg"><g fill-rule="nonzero" fill="none"><rect fill="#039188" x=".08" y=".55" width="70" height="47" rx="6.36"/><path fill="#FFF" d="M.08 26.14h70.13v4.18H.08z"/><path fill="#434A54" d="M.08 21.96h70.13v4.18H.08z"/><path fill="#F6BB42" d="M.08 17.79h70.13v4.18H.08z"/><path fill="#FFF" d="M37.42.55h4.18v47h-4.18z"/><path fill="#434A54" d="M33.24.55h4.18v47h-4.18z"/><path fill="#F6BB42" d="M29.07.55h4.18v47h-4.18z"/><circle fill="#ED5565" cx="35.15" cy="24.05" r="12.92"/><path d="M44.8 20.51h.78a.13.13 0 0 1 .07.23l-.6.44a.13.13 0 0 0 0 .14l.23.76a.13.13 0 0 1-.2.14l-.65-.45a.13.13 0 0 0-.15 0l-.69.52a.13.13 0 0 1-.2-.14l.26-.8a.13.13 0 0 0 0-.14l-.67-.49a.13.13 0 0 1 .08-.23h.84a.13.13 0 0 0 .12-.09l.25-.72a.13.13 0 0 1 .24 0l.25.72a.13.13 0 0 0 .04.11zM25.49 27.59h-.78a.13.13 0 0 1-.07-.23l.6-.44a.13.13 0 0 0 0-.14l-.23-.76a.13.13 0 0 1 .2-.14l.65.45a.13.13 0 0 0 .15 0l.69-.52a.13.13 0 0 1 .2.14l-.26.8a.13.13 0 0 0 0 .14l.67.49a.13.13 0 0 1-.08.23h-.84a.13.13 0 0 0-.12.09l-.25.72a.13.13 0 0 1-.24 0l-.25-.72a.13.13 0 0 0-.04-.11zM45 26.86l.62.47a.13.13 0 0 1-.08.23h-.75a.13.13 0 0 0-.12.09l-.26.75a.13.13 0 0 1-.24 0l-.26-.74a.13.13 0 0 0-.12-.09h-.86a.13.13 0 0 1-.08-.23l.69-.49a.13.13 0 0 0 0-.14l-.25-.79a.13.13 0 0 1 .2-.14l.68.5a.13.13 0 0 0 .15 0l.63-.44a.13.13 0 0 1 .2.14l-.22.73a.13.13 0 0 0 .07.15zM25.25 21.24l-.62-.47a.13.13 0 0 1 .08-.23h.75a.13.13 0 0 0 .12-.09l.26-.75a.13.13 0 0 1 .24 0l.26.74a.13.13 0 0 0 .12.09h.86a.13.13 0 0 1 .08.23l-.69.49a.13.13 0 0 0 0 .14l.25.79a.13.13 0 0 1-.2.14l-.68-.5a.13.13 0 0 0-.15 0l-.63.44a.13.13 0 0 1-.2-.14l.22-.73a.13.13 0 0 0-.07-.15zM41.5 32.14l.22.75a.13.13 0 0 1-.2.14l-.6-.44a.13.13 0 0 0-.15 0l-.65.46a.13.13 0 0 1-.2-.14l.23-.76a.13.13 0 0 0-.05-.14l-.71-.49a.13.13 0 0 1 .07-.24h.84a.13.13 0 0 0 .12-.09l.26-.79a.13.13 0 0 1 .25 0l.26.8a.13.13 0 0 0 .12.09h.76a.13.13 0 0 1 .07.23l-.61.46a.13.13 0 0 0-.03.16zM28.79 16l-.22-.75a.13.13 0 0 1 .2-.14l.6.44a.13.13 0 0 0 .15 0l.65-.46a.13.13 0 0 1 .2.14l-.23.76a.13.13 0 0 0 .05.14l.71.49a.13.13 0 0 1-.07.24H30a.13.13 0 0 0-.12.09l-.26.79a.13.13 0 0 1-.25 0l-.26-.8a.13.13 0 0 0-.12-.09h-.76a.13.13 0 0 1-.07-.23l.61-.46a.13.13 0 0 0 .02-.16zM40.88 15.51l.64-.44a.13.13 0 0 1 .2.15l-.23.71a.13.13 0 0 0 0 .14l.64.48a.13.13 0 0 1-.07.23h-.79a.13.13 0 0 0-.12.09l-.25.83a.13.13 0 0 1-.25 0l-.26-.8a.13.13 0 0 0-.12-.09h-.83a.13.13 0 0 1-.07-.23l.68-.49a.13.13 0 0 0 0-.14l-.22-.73a.13.13 0 0 1 .2-.14l.62.44a.13.13 0 0 0 .23-.01zM29.41 32.59l-.64.44a.13.13 0 0 1-.2-.15l.23-.71a.13.13 0 0 0 0-.14l-.64-.48a.13.13 0 0 1 .07-.23h.79a.13.13 0 0 0 .12-.09l.25-.83a.13.13 0 0 1 .25 0l.26.8a.13.13 0 0 0 .12.09h.83a.13.13 0 0 1 .07.23l-.68.49a.13.13 0 0 0 0 .14l.22.73a.13.13 0 0 1-.2.14l-.62-.44a.13.13 0 0 0-.23.01zM34.76 13.77L35 13a.13.13 0 0 1 .24 0l.23.71a.13.13 0 0 0 .12.09h.8a.13.13 0 0 1 .08.23l-.63.48a.13.13 0 0 0 0 .15l.28.82a.13.13 0 0 1-.2.15l-.68-.5a.13.13 0 0 0-.15 0l-.68.48a.13.13 0 0 1-.2-.15l.26-.8a.13.13 0 0 0 0-.14l-.61-.46a.13.13 0 0 1 .08-.23h.76a.13.13 0 0 0 .06-.06zM35.53 34.33l-.26.73a.13.13 0 0 1-.24 0l-.23-.71a.13.13 0 0 0-.12-.09h-.8a.13.13 0 0 1-.08-.23l.63-.48a.13.13 0 0 0 0-.15l-.28-.82a.13.13 0 0 1 .2-.15l.68.5a.13.13 0 0 0 .15 0l.68-.48a.13.13 0 0 1 .2.15l-.26.8a.13.13 0 0 0 0 .14l.61.46a.13.13 0 0 1-.08.23h-.76a.13.13 0 0 0-.04.1zM38.93 29.33a2.86 2.86 0 0 0-.05-1.11 2.62 2.62 0 0 0-.09-1 6.11 6.11 0 0 0-.64-3.57 9.9 9.9 0 0 0-1.1-2 .07.07 0 0 1 .08-.1 1 1 0 0 0 1.14-.25.07.07 0 0 0 0-.11 1.47 1.47 0 0 1-.41-.18.07.07 0 0 1 0-.12 1.12 1.12 0 0 0 .29-.22.07.07 0 0 0 0-.11 1.46 1.46 0 0 1-.4-.18.07.07 0 0 1 0-.12 1.16 1.16 0 0 0 .24-.2.07.07 0 0 0 0-.11 1.94 1.94 0 0 1-.59-.3.07.07 0 0 1 0-.11c.073-.05.14-.106.2-.17a.07.07 0 0 0 0-.11 1.58 1.58 0 0 1-.45-.21.07.07 0 0 1 0-.13h.21a.07.07 0 0 0 0-.13c-.62-.35-1.37-1.22-1.84-1.45a1.9 1.9 0 0 0-1.87.1 1 1 0 0 0-.36.64.07.07 0 0 1-.05.05h-.16c-.42.09-.68.46-.36 1.3a.07.07 0 0 0 .13 0 1.53 1.53 0 0 1 .09-.19.07.07 0 0 1 .09 0 .6.6 0 0 0 .51 0 .81.81 0 0 0 .2-.1.07.07 0 0 1 .07 0 .07.07 0 0 1 0 .1.38.38 0 0 0-.05.18.4.4 0 0 0-.18.32.4.4 0 0 0-.14.3 6.32 6.32 0 0 0-.64 3.41 5.19 5.19 0 0 0 1.42 3.27c.022.09.052.176.09.26-.02.15-.02.3 0 .45 0 .45.25.78.45.77.018.209.083.41.19.59a.07.07 0 0 1 0 .09 1.21 1.21 0 0 0-.37.33.07.07 0 0 1-.05 0h-1.27c-.18 0-.07-.23-.21-.47a.77.77 0 0 0-.95-.17c-.32.18-.07.51-.62.56a.07.07 0 0 0-.06.09c.12.284.289.545.5.77.86.095 1.726.125 2.59.09a.07.07 0 0 1 .05 0 1 1 0 0 0 1 .43h.06a.48.48 0 0 0 .41 0 .07.07 0 0 1 .06 0 .53.53 0 0 0 .37 0h.05a.67.67 0 0 0 .3 0 .07.07 0 0 1 .07 0c.12.24.25.38.37.36.13.39.26.62.39.6.13-.02.22-.23.29-.61h.05c.2 0 .36-.37.46-.94a.07.07 0 0 1 .06-.06h.11a.56.56 0 0 0 0-.73v-.41a.07.07 0 0 1 .13 0l.14.32a.147.147 0 1 0 .05.29z" fill="#039188"/></g></svg>