<svg width="71" height="48" xmlns="http://www.w3.org/2000/svg"><g fill="none"><rect fill="#4758A9" x=".9" y=".13" width="70" height="47" rx="6.36"/><path fill="#F6D660" d="M13.9.13h37v47z"/><path d="M8.19 4.88c-.27-.08-.28-.24 0-.36l1-.44a.93.93 0 00.49-.73v-1c0-.28.17-.33.35-.12l.67.8c.203.22.517.3.8.2l1.08-.43c.26-.11.36 0 .2.24l-.62 1a.79.79 0 000 .84l.65.85c.17.22.08.36-.19.31l-1.06-.2a.88.88 0 00-.8.32l-.55.76c-.17.23-.33.19-.36-.09l-.11-1a.84.84 0 00-.55-.65l-1-.3zm4.32 5.5c-.27-.08-.28-.24 0-.36l1-.44a.92.92 0 00.49-.73v-1c0-.28.17-.33.35-.12l.67.8c.203.22.517.3.8.2l1.08-.43c.26-.1.35 0 .2.24l-.62 1a.79.79 0 000 .84l.65.85c.17.22.08.36-.19.31l-1.06-.2a.88.88 0 00-.8.32l-.55.76c-.17.23-.33.19-.36-.09l-.12-1a.84.84 0 00-.55-.65l-.99-.3zm4.33 5.5c-.27-.08-.28-.24 0-.36l1-.44a.92.92 0 00.49-.73v-1c0-.28.17-.33.35-.12l.67.81c.203.22.517.3.8.2l1.08-.43c.26-.11.35 0 .2.24l-.62 1a.79.79 0 000 .84l.65.85c.17.22.08.36-.19.31l-1.06-.2a.88.88 0 00-.8.32l-.55.76c-.16.23-.33.19-.36-.09l-.11-1a.84.84 0 00-.55-.65l-1-.31zm4.33 5.5c-.27-.08-.28-.24 0-.36l1-.44a.92.92 0 00.49-.73v-1c0-.28.17-.33.35-.12l.67.81c.203.22.517.3.8.2l1.08-.43c.26-.1.35 0 .2.24l-.62 1a.79.79 0 000 .84l.65.85c.17.22.08.36-.19.31l-1.06-.2a.88.88 0 00-.8.32l-.55.76c-.17.23-.33.19-.36-.09l-.12-1a.83.83 0 00-.55-.65l-.99-.31zm4.33 5.5c-.27-.08-.28-.24 0-.36l1-.44a.93.93 0 00.49-.73v-1c0-.28.17-.33.35-.12l.67.81c.203.22.517.3.8.2l1.08-.43c.26-.11.35 0 .2.24l-.62 1a.79.79 0 000 .84l.65.85c.17.22.08.36-.19.31l-1.06-.2a.88.88 0 00-.8.32l-.55.76c-.17.23-.33.19-.36-.09l-.12-1a.83.83 0 00-.55-.65l-.99-.31zm4.33 5.5c-.27-.08-.28-.24 0-.36l1-.44a.93.93 0 00.49-.73v-1c0-.28.17-.33.35-.12l.67.81c.203.22.517.3.8.2l1.08-.43c.26-.11.35 0 .2.24l-.62 1a.79.79 0 000 .84l.65.85c.17.22.08.36-.19.31l-1.06-.2a.88.88 0 00-.8.32l-.55.76c-.17.23-.33.19-.36-.09l-.12-1a.84.84 0 00-.55-.65l-.99-.31zm4.33 5.51c-.27-.08-.28-.24 0-.36l1-.44a.93.93 0 00.49-.73v-1c0-.28.17-.34.35-.12l.67.81c.203.22.517.3.8.2l1.08-.43c.26-.11.35 0 .2.24l-.62 1a.79.79 0 000 .84l.65.85c.17.22.08.36-.19.31l-1.06-.2a.88.88 0 00-.8.32l-.55.76c-.17.23-.33.19-.36-.09l-.12-1a.84.84 0 00-.55-.65l-.99-.31zm3.71 4.71c-.27-.08-.28-.24 0-.36l1-.44a.93.93 0 00.49-.73v-1c0-.28.17-.33.35-.12l.67.81c.203.22.517.3.8.2l1.08-.43c.26-.11.35 0 .21.24l-.62 1a.79.79 0 000 .84l.65.85c.17.22.09.36-.19.31l-1.06-.2a.88.88 0 00-.8.32l-.55.76c-.16.23-.33.19-.36-.09l-.12-1a.84.84 0 00-.55-.65l-1-.31z" fill="#FFF"/></g></svg>