<svg width="71" height="48" xmlns="http://www.w3.org/2000/svg"><g fill-rule="nonzero" fill="none"><path d="M3.88 47l.51-.12 66.47-30.61V7.33A6.36 6.36 0 0 0 64.5.97H46.6L2.28 45.59A6.39 6.39 0 0 0 3.88 47z" fill="#ED5565"/><path d="M7.24 1A6.36 6.36 0 0 0 .88 7.36v34.27c0 .915.197 1.819.58 2.65L24.15 1H7.24z" fill="#4758A9"/><path d="M25.1 1h-.95L1.45 44.28c.14.306.304.6.49.88.11.16.22.31.34.46L46.6 1H25.1z" fill="#FFCE54"/><path fill="#FFF" d="M70.87 30.89V16.26L4.4 46.87z"/><path d="M4.4 46.87l-.41.19a6.32 6.32 0 0 0 3.25.9h57.27a6.36 6.36 0 0 0 6.36-6.36V30.9L4.4 46.87z" fill="#57A863"/></g></svg>