<svg width="71" height="48" xmlns="http://www.w3.org/2000/svg"><g fill-rule="nonzero" fill="none"><path d="M7 47.61h57.77A6.64 6.64 0 0 0 70.16 44H1.6A6.64 6.64 0 0 0 7 47.61z" fill="#ED5565"/><path d="M.91 40.38v1.34a6.59 6.59 0 0 0 .68 2.27h68.55a6.59 6.59 0 0 0 .68-2.27v-1.34H.91z" fill="#FFF"/><path fill="#ED5565" d="M.91 36.77h69.92v3.61H.91z"/><path fill="#FFF" d="M.91 33.16h69.92v3.61H.91z"/><path fill="#ED5565" d="M.91 29.55h69.92v3.61H.91z"/><path fill="#FFF" d="M.91 25.94h69.92v3.61H.91z"/><path fill="#ED5565" d="M.91 22.33h69.92v3.61H.91z"/><path fill="#FFF" d="M.91 18.72h69.92v3.61H.91z"/><path fill="#ED5565" d="M.91 15.11h69.92v3.61H.91z"/><path fill="#FFF" d="M.91 11.49h69.92v3.61H.91z"/><path fill="#ED5565" d="M.91 7.88h69.92v3.61H.91z"/><path d="M70.83 7.88V6.54a6.59 6.59 0 0 0-.68-2.28H1.6a6.59 6.59 0 0 0-.68 2.28v1.34h69.91z" fill="#FFF"/><path d="M64.76.66H7a6.64 6.64 0 0 0-5.39 3.61h68.55a6.64 6.64 0 0 0-5.4-3.61z" fill="#ED5565"/><path d="M34.09 25.94V.66H7A6.64 6.64 0 0 0 .93 6.55v19.39h33.16z" fill="#4A89DC"/><path fill="#FFF" d="M5.02 3.72l-.27.84h-.88l.71.51-.27.84.71-.52.71.52-.27-.84.71-.51h-.88zM5.02 7.96l-.27.84h-.88l.71.52-.27.83.71-.51.71.51-.27-.83.71-.52h-.88zM5.02 12.2l-.27.84h-.88l.71.52-.27.84.71-.52.71.52-.27-.84.71-.52h-.88zM5.02 16.45l-.27.83h-.88l.71.52-.27.84.71-.52.71.52-.27-.84.71-.52h-.88zM5.29 21.52l-.27-.83-.27.83h-.88l.71.52-.27.84.71-.52.71.52-.27-.84.71-.52zM7.51 5.84l-.27.84h-.88l.71.52-.27.83.71-.52.72.52-.27-.83.71-.52h-.88zM7.51 10.08l-.27.84h-.88l.71.52-.27.83.71-.51.72.51-.27-.83.71-.52h-.88zM7.51 14.33l-.27.83h-.88l.71.52-.27.84.71-.52.72.52-.27-.84.71-.52h-.88zM7.79 19.4l-.28-.83-.27.83h-.88l.71.52-.27.84.71-.52.72.52-.27-.84.71-.52zM10.01 3.72l-.27.84h-.88l.71.51-.27.84.71-.52.71.52-.27-.84.71-.51h-.88zM10.01 7.96l-.27.84h-.88l.71.52-.27.83.71-.51.71.51-.27-.83.71-.52h-.88zM10.01 12.2l-.27.84h-.88l.71.52-.27.84.71-.52.71.52-.27-.84.71-.52h-.88zM10.01 16.45l-.27.83h-.88l.71.52-.27.84.71-.52.71.52-.27-.84.71-.52h-.88zM10.28 21.52l-.27-.83-.27.83h-.88l.71.52-.27.84.71-.52.71.52-.27-.84.71-.52zM12.5 5.84l-.27.84h-.88l.71.52-.27.83.71-.52.72.52-.27-.83.71-.52h-.88zM12.5 10.08l-.27.84h-.88l.71.52-.27.83.71-.51.72.51-.27-.83.71-.52h-.88zM12.5 14.33l-.27.83h-.88l.71.52-.27.84.71-.52.72.52-.27-.84.71-.52h-.88zM12.78 19.4l-.28-.83-.27.83h-.88l.71.52-.27.84.71-.52.72.52-.27-.84.71-.52zM15 3.72l-.27.84h-.88l.71.51-.27.84.71-.52.71.52-.27-.84.71-.51h-.88zM15 7.96l-.27.84h-.88l.71.52-.27.83.71-.51.71.51-.27-.83.71-.52h-.88zM15 12.2l-.27.84h-.88l.71.52-.27.84.71-.52.71.52-.27-.84.71-.52h-.88zM15 16.45l-.27.83h-.88l.71.52-.27.84.71-.52.71.52-.27-.84.71-.52h-.88zM15.27 21.52l-.27-.83-.27.83h-.88l.71.52-.27.84.71-.52.71.52-.27-.84.71-.52zM17.49 5.84l-.27.84h-.88l.71.52-.27.83.71-.52.72.52-.28-.83.72-.52h-.88zM17.49 10.08l-.27.84h-.88l.71.52-.27.83.71-.51.72.51-.28-.83.72-.52h-.88zM17.49 14.33l-.27.83h-.88l.71.52-.27.84.71-.52.72.52-.28-.84.72-.52h-.88zM17.77 19.4l-.28-.83-.27.83h-.88l.71.52-.27.84.71-.52.72.52-.28-.84.72-.52zM19.99 3.72l-.27.84h-.88l.71.51-.27.84.71-.52.71.52-.27-.84.71-.51h-.88zM19.99 7.96l-.27.84h-.88l.71.52-.27.83.71-.51.71.51-.27-.83.71-.52h-.88zM19.99 12.2l-.27.84h-.88l.71.52-.27.84.71-.52.71.52-.27-.84.71-.52h-.88zM19.99 16.45l-.27.83h-.88l.71.52-.27.84.71-.52.71.52-.27-.84.71-.52h-.88zM20.26 21.52l-.27-.83-.27.83h-.88l.71.52-.27.84.71-.52.71.52-.27-.84.71-.52zM22.48 5.84l-.27.84h-.88l.71.52-.27.83.71-.52.72.52-.28-.83.72-.52h-.88zM22.48 10.08l-.27.84h-.88l.71.52-.27.83.71-.51.72.51-.28-.83.72-.52h-.88zM22.48 14.33l-.27.83h-.88l.71.52-.27.84.71-.52.72.52-.28-.84.72-.52h-.88zM22.76 19.4l-.28-.83-.27.83h-.88l.71.52-.27.84.71-.52.72.52-.28-.84.72-.52zM24.98 3.72l-.27.84h-.88l.71.51-.27.84.71-.52.71.52-.27-.84.71-.51h-.88zM24.98 7.96l-.27.84h-.88l.71.52-.27.83.71-.51.71.51-.27-.83.71-.52h-.88zM24.98 12.2l-.27.84h-.88l.71.52-.27.84.71-.52.71.52-.27-.84.71-.52h-.88zM24.98 16.45l-.27.83h-.88l.71.52-.27.84.71-.52.71.52-.27-.84.71-.52h-.88zM25.25 21.52l-.27-.83-.27.83h-.88l.71.52-.27.84.71-.52.71.52-.27-.84.71-.52zM27.47 5.84l-.27.84h-.88l.71.52-.27.83.71-.52.72.52-.28-.83.72-.52h-.88zM27.47 10.08l-.27.84h-.88l.71.52-.27.83.71-.51.72.51-.28-.83.72-.52h-.88zM27.47 14.33l-.27.83h-.88l.71.52-.27.84.71-.52.72.52-.28-.84.72-.52h-.88zM27.75 19.4l-.28-.83-.27.83h-.88l.71.52-.27.84.71-.52.72.52-.28-.84.72-.52zM29.53 5.07l-.27.84.71-.52.71.52-.27-.84.71-.51h-.88l-.27-.84-.27.84h-.88zM29.97 7.96l-.27.84h-.88l.71.52-.27.83.71-.51.71.51-.27-.83.71-.52h-.88zM29.97 12.2l-.27.84h-.88l.71.52-.27.84.71-.52.71.52-.27-.84.71-.52h-.88zM29.97 16.45l-.27.83h-.88l.71.52-.27.84.71-.52.71.52-.27-.84.71-.52h-.88zM30.24 21.52l-.27-.83-.27.83h-.88l.71.52-.27.84.71-.52.71.52-.27-.84.71-.52z"/></g></svg>