<svg width="71" height="48" xmlns="http://www.w3.org/2000/svg"><g fill-rule="nonzero" fill="none"><rect fill="#FFCE54" x=".25" y=".52" width="70" height="47" rx="6.36"/><path fill="#57A863" d="M5.25 42.52v-37h8.11v37z"/><path fill="#FF8416" d="M13.36 42.52v-37h8.11v37z"/><path fill="#ED5565" d="M26.47 42.52v-37h38.79v37z"/><path d="M59.54 16.69a.72.72 0 0 0-.56-.39.7.7 0 0 0-.61.26.59.59 0 0 0-.15.55 4.29 4.29 0 0 1-1.29-.88 11.63 11.63 0 0 0-3.68-2.14 8.18 8.18 0 0 0-2.81-.15 4.6 4.6 0 0 0-2.13 1 2.06 2.06 0 0 0 0 3l.15.18-.09.14a1.22 1.22 0 0 0 .05 1.37c.26.35.33.35.39.35s.22-.28.23-.37a.46.46 0 0 1 .27-.45c.14-.05.25 0 1.15.33a8.4 8.4 0 0 0 4.39.08 4.71 4.71 0 0 1 2.17 0 1 1 0 0 1 .62.68 1 1 0 0 1-.28.92c-.22.24-.4.35-1.24.58a6 6 0 0 1-2.15.16 9.58 9.58 0 0 0-2.18.12 9.48 9.48 0 0 1-2.41.08h-1.71l-.34-.46a1.18 1.18 0 0 1-.18-.51V21l.2.12a.2.2 0 0 0 .23 0c.11-.1.09-.26-.12-.76a1.26 1.26 0 0 1-.07-.39v-.05a.16.16 0 0 0 .16 0c.06-.05.08-.07.12-1.33.04-1.26 0-1.6-.34-2l-.07-.09.15-.16a2 2 0 0 0 .57-1.08l.13-.8-.64.6a.54.54 0 0 1-.48.21.43.43 0 0 1-.41-.18 2.4 2.4 0 0 0-1-.59.33.33 0 0 0-.3 0 .24.24 0 0 0-.09.2 1.44 1.44 0 0 1-.14.34l-.06.1-.18-.18a1.79 1.79 0 0 0-.71-.45c-.27-.07-.45-.12-.58 0-.13.12-.12.25-.12.42 0 .17-.06.31-.06.31s-.08 0-.29-.17a1.42 1.42 0 0 0-1.28-.3l-.67.07.16.41c0 .1 0 .12-.07.27a1 1 0 0 1-.88.38 1.91 1.91 0 0 0-.68.12 2.31 2.31 0 0 1-.58.13l-.47.07a.74.74 0 0 0-.16-.6.83.83 0 0 0-.64-.27.79.79 0 0 0-.67.32 1.15 1.15 0 0 0-.08 1c0 .12.09.31.12.42a3 3 0 0 0 .62.82c.207.201.4.415.58.64.104.146.241.266.4.35l.54.3-.06-.47c.072.063.149.12.23.17.13.08.25.15.36.09a.23.23 0 0 0 .1-.21.65.65 0 0 1 0-.12c.17.27.36.528.57.77l.14.17a7.35 7.35 0 0 1-2.49-.7c-.67-.3-.88-.36-1-.22a.34.34 0 0 0-.1.31 1 1 0 0 0 .4.54.66.66 0 0 0-.23.38l-.2.63-.19.59.65-.06a4.77 4.77 0 0 0 .59-.09l-.32.59.6-.12a2.48 2.48 0 0 0 .49-.16h.07l.09.13c.05.09.22.35.44.3.22-.05.2-.13.23-.3l.05.11c.18.39.36.57.55.55.19-.02.19 0 .22-.26a.51.51 0 0 1 .17-.2.25.25 0 0 1 .17-.07s.07.06.1.14c.03.08 0 .31-.76.78a5 5 0 0 0-2.53 3.61 3.39 3.39 0 0 0 0 1.23c-.21-.23-.5-.52-.92-.93l-1.16-1.13a1 1 0 0 0 .52-.89.81.81 0 0 0-.61-.72.93.93 0 0 0-.38 0c0-.34.06-1 .09-2.55.08-4.13.38-7.27.78-8 .1-.18.17-.32.05-.43-.12-.11-.25 0-.58.19a4.26 4.26 0 0 0-1.38 1.6c-.7 1.32-1 3.12-1 6.86a23.17 23.17 0 0 0 .05 2.35.92.92 0 0 0-.41 0 .8.8 0 0 0-.64.69 1 1 0 0 0 .64 1c.147.068.301.118.46.15a.32.32 0 0 0-.08.29.31.31 0 0 0 0 .11.34.34 0 0 0-.17.1c-.07.08-.13.23 0 .49a.5.5 0 0 0 .22.22.36.36 0 0 0-.1.36c.032.1.1.186.19.24a.4.4 0 0 0 0 .24.43.43 0 0 0 .27.42.5.5 0 0 0 0 .23l-.13-.06a.45.45 0 0 0-.46 0 .42.42 0 0 0-.07.65.81.81 0 0 0 .62.15.7.7 0 0 1-.14.21l-.28.31.23.32a.82.82 0 0 1 0 .91l-.05.06a.49.49 0 0 0-.47-.22.4.4 0 0 0-.3.31c-.07.25 0 .39.25.58a1 1 0 0 0 .55.25.61.61 0 0 1-.12.12l-.52.4.72.11h.21c.06.22.25.65.45.65s.29-.18.33-.23a.81.81 0 0 0 .15-.42h.21l.73-.1-.54-.43-.11-.1a1.13 1.13 0 0 0 .82-.55.46.46 0 0 0-.07-.43.47.47 0 0 0-.45-.15.36.36 0 0 0-.27.24l-.06-.06a.75.75 0 0 1 0-1c.21-.24.17-.35-.05-.56a.8.8 0 0 1-.19-.31h.11a.53.53 0 0 0 .54 0 .36.36 0 0 0 .14-.43.51.51 0 0 0-.38-.27.48.48 0 0 0 .27-.14.85.85 0 0 0 .16.15c.16.12.16.12.16.78s0 .84.19 1c.19.16.18.17.3.12a.22.22 0 0 0 .12-.23.33.33 0 0 1 .2-.12c.23.175.447.365.65.57.265.28.572.516.91.7h.25a1.36 1.36 0 0 0 .41-.12 2.79 2.79 0 0 0 1-.87 7.7 7.7 0 0 0 .85.52c.202.14.436.226.68.25.07.24.16.51.26.81.53 1.57.35 2-.21 2.35-.19.11-.29.13-.91.13-.62 0-.81 0-1.07.21a1.91 1.91 0 0 0-.54 1.1.25.25 0 0 0 .12.22c.13.07.3 0 .59-.13l.13-.08a.57.57 0 0 0 .38.21 1 1 0 0 0 .69-.18l.1-.07.07.07a.85.85 0 0 0 .56.2 1 1 0 0 0 .58-.19l.1-.07c.175.111.374.18.58.2.42.05.48 0 .73-.34a.85.85 0 0 0 .18-.74c0-.16-.06-.42-.06-.58a.94.94 0 0 1 0-.16c.096-.05.196-.09.3-.12a5.89 5.89 0 0 0 .63-.25c.16-.09.73-.68.73-.9 0-.22-.14-.22-.56-.26-.42-.04-.56-.13-.63-.28-.07-.15 0-.5.29-.93.17-.26.32-.51.46-.76l.28-.06c.15 0 .95-.38 1.61-.68a8 8 0 0 1 3.57-1v.28a3.21 3.21 0 0 0 .93 1.94 2.63 2.63 0 0 1 .79 2.23v1l-.16.15c-.15.14-.17.16-.81.2-.64.04-.78.06-1 .26a1.14 1.14 0 0 0-.43.69.35.35 0 0 0 0 .32.28.28 0 0 0 .23.09 1.28 1.28 0 0 0 .52-.21l.17-.11.1.09a.68.68 0 0 0 1 0 .63.63 0 0 0 .54.25c.29 0 .44 0 .59-.23l.14.09c.179.127.39.2.61.21a.56.56 0 0 0 .34-.11l.05.05c.15.11.36 0 .63-.16l.14-.09a.57.57 0 0 0 .4.24.85.85 0 0 0 .64-.21l.11-.09.12.09a.87.87 0 0 0 .76.18.64.64 0 0 0 .37-.27c.288.21.647.3 1 .25a.3.3 0 0 0 .23-.17.66.66 0 0 0-.13-.52 2 2 0 0 1-.47-1c0-.34.07-.5.53-.84.46-.34.71-.74.62-1a.37.37 0 0 0-.4-.25c-.2 0-.43-.21-.58-.54-.34-.77-.27-1.63.26-3.1a6.62 6.62 0 0 0 .62-2.89 3 3 0 0 0-.22-1.49 5.3 5.3 0 0 0-.54-1l-.21-.29.28-.23a2.1 2.1 0 0 0 .82-1.92 2.15 2.15 0 0 0-1.35-1.65 2.61 2.61 0 0 0-1.41-.22 11.61 11.61 0 0 0-1.62.14 10.87 10.87 0 0 1-1.57.13c-.76 0-.86 0-1.11-.15-.25-.15-.28-.17-.33-.5a.39.39 0 0 0-.24-.31c-.21-.07-.61.3-.78.54a1.55 1.55 0 0 1-.15-.31c-.07-.2-.07-.43.37-.65l.61-.29-.46-.28a1.13 1.13 0 0 0-.86-.11 1.16 1.16 0 0 0-.73.5l-.05.08-.16-.15a.74.74 0 0 1-.24-.7.76.76 0 0 1 .53-.53.63.63 0 0 1 .47 0 .18.18 0 0 1 .09.11c.08.29.28.26.32.25.27-.05.43-.53.38-.89v-.12c.392.08.745.292 1 .6a1.13 1.13 0 0 1 0 1.12l-.39.64.62-.12a1.64 1.64 0 0 0 1-.65 1.53 1.53 0 0 0 .07-1.3c.253.108.459.303.58.55.117.16.14.37.06.55a1.79 1.79 0 0 1-.22.49c-.1.13-.18.24-.12.36a.23.23 0 0 0 .22.11 1.6 1.6 0 0 0 .88-.4c.11-.132.197-.28.26-.44.234.335.56.596.94.75.45.19.62.21.7.07.08-.14-.08-.28-.14-.33a2.09 2.09 0 0 1-.26-.61c.22.16.58.45 1 .84a2.4 2.4 0 0 0 1.75.81 1.14 1.14 0 0 0 1-.52 1 1 0 0 0 .31-1.09zM34.4 28a.66.66 0 0 0 .26-.07.2.2 0 0 0 .08.06 1 1 0 0 0-.26 0l-.08.01zm20.85 6a2.2 2.2 0 0 0-1.2.62 2.55 2.55 0 0 0-.12-.53c-.14-.43-.1-.66.45-1.31.08-.09.47-.56.47-.77a.3.3 0 0 0-.08-.23c-.09-.09-.23-.09-.45-.09s-.3 0-.42-.14-.25-.37.05-.75l.2-.25.19.12c1.55 1 1.55 1 1.62 2.08.07 1.08.04 1.11-.71 1.25z" fill="#FFCE54"/></g></svg>