<svg width="71" height="48" xmlns="http://www.w3.org/2000/svg"><g fill="none"><path d="M7 47.61h57.77A6.64 6.64 0 0070.16 44H1.6A6.64 6.64 0 007 47.61z" fill="#ED5565"/><path d="M.91 40.38v1.34a6.59 6.59 0 00.68 2.27h68.55a6.59 6.59 0 00.68-2.27v-1.34H.91z" fill="#FFF"/><path fill="#ED5565" d="M.91 36.77h69.92v3.61H.91z"/><path fill="#FFF" d="M.91 33.16h69.92v3.61H.91z"/><path fill="#ED5565" d="M.91 29.55h69.92v3.61H.91z"/><path fill="#FFF" d="M.91 25.94h69.92v3.61H.91z"/><path fill="#ED5565" d="M.91 22.33h69.92v3.61H.91z"/><path fill="#FFF" d="M.91 18.72h69.92v3.61H.91z"/><path fill="#ED5565" d="M.91 15.11h69.92v3.61H.91z"/><path fill="#FFF" d="M.91 11.49h69.92v3.61H.91z"/><path fill="#ED5565" d="M.91 7.88h69.92v3.61H.91z"/><path d="M70.83 7.88V6.54a6.59 6.59 0 00-.68-2.28H1.6a6.59 6.59 0 00-.68 2.28v1.34h69.91z" fill="#FFF"/><path d="M64.76.66H7a6.64 6.64 0 00-5.39 3.61h68.55a6.64 6.64 0 00-5.4-3.61z" fill="#ED5565"/><path d="M34.09 25.94V.66H7A6.64 6.64 0 00.93 6.55v19.39h33.16z" fill="#4A89DC"/><path fill="#FFF" d="M5.02 3.72l-.27.84h-.88l.71.51-.27.84.71-.52.71.52-.27-.84.71-.51h-.88zm0 4.24l-.27.84h-.88l.71.52-.27.83.71-.51.71.51-.27-.83.71-.52h-.88zm0 4.24l-.27.84h-.88l.71.52-.27.84.71-.52.71.52-.27-.84.71-.52h-.88zm0 4.25l-.27.83h-.88l.71.52-.27.84.71-.52.71.52-.27-.84.71-.52h-.88zm.27 5.07l-.27-.83-.27.83h-.88l.71.52-.27.84.71-.52.71.52-.27-.84.71-.52zM7.51 5.84l-.27.84h-.88l.71.52-.27.83.71-.52.72.52-.27-.83.71-.52h-.88zm0 4.24l-.27.84h-.88l.71.52-.27.83.71-.51.72.51-.27-.83.71-.52h-.88zm0 4.25l-.27.83h-.88l.71.52-.27.84.71-.52.72.52-.27-.84.71-.52h-.88zm.28 5.07l-.28-.83-.27.83h-.88l.71.52-.27.84.71-.52.72.52-.27-.84.71-.52zm2.22-15.68l-.27.84h-.88l.71.51-.27.84.71-.52.71.52-.27-.84.71-.51h-.88zm0 4.24l-.27.84h-.88l.71.52-.27.83.71-.51.71.51-.27-.83.71-.52h-.88zm0 4.24l-.27.84h-.88l.71.52-.27.84.71-.52.71.52-.27-.84.71-.52h-.88zm0 4.25l-.27.83h-.88l.71.52-.27.84.71-.52.71.52-.27-.84.71-.52h-.88zm.27 5.07l-.27-.83-.27.83h-.88l.71.52-.27.84.71-.52.71.52-.27-.84.71-.52zM12.5 5.84l-.27.84h-.88l.71.52-.27.83.71-.52.72.52-.27-.83.71-.52h-.88zm0 4.24l-.27.84h-.88l.71.52-.27.83.71-.51.72.51-.27-.83.71-.52h-.88zm0 4.25l-.27.83h-.88l.71.52-.27.84.71-.52.72.52-.27-.84.71-.52h-.88zm.28 5.07l-.28-.83-.27.83h-.88l.71.52-.27.84.71-.52.72.52-.27-.84.71-.52zM15 3.72l-.27.84h-.88l.71.51-.27.84.71-.52.71.52-.27-.84.71-.51h-.88zm0 4.24l-.27.84h-.88l.71.52-.27.83.71-.51.71.51-.27-.83.71-.52h-.88zm0 4.24l-.27.84h-.88l.71.52-.27.84.71-.52.71.52-.27-.84.71-.52h-.88zm0 4.25l-.27.83h-.88l.71.52-.27.84.71-.52.71.52-.27-.84.71-.52h-.88zm.27 5.07l-.27-.83-.27.83h-.88l.71.52-.27.84.71-.52.71.52-.27-.84.71-.52zm2.22-15.68l-.27.84h-.88l.71.52-.27.83.71-.52.72.52-.28-.83.72-.52h-.88zm0 4.24l-.27.84h-.88l.71.52-.27.83.71-.51.72.51-.28-.83.72-.52h-.88zm0 4.25l-.27.83h-.88l.71.52-.27.84.71-.52.72.52-.28-.84.72-.52h-.88zm.28 5.07l-.28-.83-.27.83h-.88l.71.52-.27.84.71-.52.72.52-.28-.84.72-.52zm2.22-15.68l-.27.84h-.88l.71.51-.27.84.71-.52.71.52-.27-.84.71-.51h-.88zm0 4.24l-.27.84h-.88l.71.52-.27.83.71-.51.71.51-.27-.83.71-.52h-.88zm0 4.24l-.27.84h-.88l.71.52-.27.84.71-.52.71.52-.27-.84.71-.52h-.88zm0 4.25l-.27.83h-.88l.71.52-.27.84.71-.52.71.52-.27-.84.71-.52h-.88zm.27 5.07l-.27-.83-.27.83h-.88l.71.52-.27.84.71-.52.71.52-.27-.84.71-.52zm2.22-15.68l-.27.84h-.88l.71.52-.27.83.71-.52.72.52-.28-.83.72-.52h-.88zm0 4.24l-.27.84h-.88l.71.52-.27.83.71-.51.72.51-.28-.83.72-.52h-.88zm0 4.25l-.27.83h-.88l.71.52-.27.84.71-.52.72.52-.28-.84.72-.52h-.88zm.28 5.07l-.28-.83-.27.83h-.88l.71.52-.27.84.71-.52.72.52-.28-.84.72-.52zm2.22-15.68l-.27.84h-.88l.71.51-.27.84.71-.52.71.52-.27-.84.71-.51h-.88zm0 4.24l-.27.84h-.88l.71.52-.27.83.71-.51.71.51-.27-.83.71-.52h-.88zm0 4.24l-.27.84h-.88l.71.52-.27.84.71-.52.71.52-.27-.84.71-.52h-.88zm0 4.25l-.27.83h-.88l.71.52-.27.84.71-.52.71.52-.27-.84.71-.52h-.88zm.27 5.07l-.27-.83-.27.83h-.88l.71.52-.27.84.71-.52.71.52-.27-.84.71-.52zm2.22-15.68l-.27.84h-.88l.71.52-.27.83.71-.52.72.52-.28-.83.72-.52h-.88zm0 4.24l-.27.84h-.88l.71.52-.27.83.71-.51.72.51-.28-.83.72-.52h-.88zm0 4.25l-.27.83h-.88l.71.52-.27.84.71-.52.72.52-.28-.84.72-.52h-.88zm.28 5.07l-.28-.83-.27.83h-.88l.71.52-.27.84.71-.52.72.52-.28-.84.72-.52zm1.78-14.33l-.27.84.71-.52.71.52-.27-.84.71-.51h-.88l-.27-.84-.27.84h-.88zm.44 2.89l-.27.84h-.88l.71.52-.27.83.71-.51.71.51-.27-.83.71-.52h-.88zm0 4.24l-.27.84h-.88l.71.52-.27.84.71-.52.71.52-.27-.84.71-.52h-.88zm0 4.25l-.27.83h-.88l.71.52-.27.84.71-.52.71.52-.27-.84.71-.52h-.88zm.27 5.07l-.27-.83-.27.83h-.88l.71.52-.27.84.71-.52.71.52-.27-.84.71-.52z"/></g></svg>