<?xml version="1.0" encoding="utf-8"?>
<!-- Generator: Adobe Illustrator 21.0.0, SVG Export Plug-In . SVG Version: 6.00 Build 0)  -->
<svg version="1.1" id="heart" xmlns="http://www.w3.org/2000/svg" xmlns:xlink="http://www.w3.org/1999/xlink" x="0px" y="0px"
	 viewBox="0 0 20 17" style="enable-background:new 0 0 20 17;" xml:space="preserve">
<path d="M18.5,1.5c-2-2-5.3-2-7.3,0L10,2.7L8.8,1.5c-2-2-5.3-2-7.3,0c-2,2-2,5.2,0,7.2l1.2,1.2L10,17l7.3-7.2l1.2-1.2
	C20.5,6.7,20.5,3.5,18.5,1.5z M14.9,9.8L10,14.6L5.1,9.8L2.7,7.5C1.4,6.1,1.4,4,2.7,2.7c1.3-1.3,3.5-1.3,4.9,0L10,5.1l2.4-2.4
	c1.3-1.3,3.5-1.3,4.9,0c1.3,1.3,1.3,3.5,0,4.8L14.9,9.8z"/>
</svg>
