<?xml version="1.0" encoding="utf-8"?>
<!-- Generator: Adobe Illustrator 21.0.0, SVG Export Plug-In . SVG Version: 6.00 Build 0)  -->
<svg version="1.1" id="Layer_1" xmlns="http://www.w3.org/2000/svg" xmlns:xlink="http://www.w3.org/1999/xlink" x="0px" y="0px"
	 viewBox="0 0 27 34" style="enable-background:new 0 0 27 34;" xml:space="preserve">
<style type="text/css">
	.st0{fill:#231F20;}
</style>
<path class="st0" d="M13.6,0l-0.2,0L0,1.4V26l13.5,8L27,26l0,0V1.4L13.6,0z M19.3,16.8l-0.9,0.5l-5-3l0,1.4l3.8,2.3l-0.8,0.5l-3-1.8
	l0,1.4l1.9,1.1l-1.8,1.1L2,13.6l11.4-6.8L25,13.5l-4.5,2.6l-7.1-4.2l0,1.4L19.3,16.8z M1.9,15.1l11.4,6.8l0,1l-8-4.7l0,1.4l8,4.8
	l0,1.1l-8-4.7l0,1.4l8,4.8l0,0l8.2-4.9v-1.3l0-0.1V17l3.4-2v10l-11.6,6.9L1.9,24.9V15.1z M1.9,12.1V3.1l11.6-1.2l11.6,1.2v9
	L13.5,5.3l0-0.1l-0.1,0l-0.1,0v0.1L1.9,12.1z"/>
</svg>
