<svg version="1.1" id="Layer_1" xmlns="http://www.w3.org/2000/svg" x="0" y="0" viewBox="0 0 23 23" xml:space="preserve"><style>.st0{fill:#231f20}</style><path class="st0" d="M17 1.5c2.5 0 4.5 2 4.5 4.5v11c0 2.5-2 4.5-4.5 4.5H6c-2.5 0-4.5-2-4.5-4.5V6c0-2.5 2-4.5 4.5-4.5h11M17 0H6C2.7 0 0 2.7 0 6v11c0 3.3 2.7 6 6 6h11c3.3 0 6-2.7 6-6V6c0-3.3-2.7-6-6-6z"/><path class="st0" d="M11.5 7.1c2.4 0 4.4 2 4.4 4.4 0 2.4-2 4.4-4.4 4.4-2.4 0-4.4-2-4.4-4.4 0-2.4 2-4.4 4.4-4.4m0-1.5c-3.3 0-5.9 2.7-5.9 5.9s2.7 5.9 5.9 5.9 5.9-2.7 5.9-5.9-2.6-5.9-5.9-5.9z"/><circle class="st0" cx="17.6" cy="5.4" r="1.3"/></svg>