<svg xmlns="http://www.w3.org/2000/svg" viewBox="0 0 19 21"><path d="M18.9 18.9c-.1-.3-3.7-10.1-3.7-10.1-.1-.5.1-.7.3-1.1 0 0 2.1-3.5 2.8-4.6.7-1.2.6-2.3-.1-2.8s-1.7-.1-2.5 1-3 4.5-3 4.5c-.3.4-.4.7-.9.8-.1-.1-10.3.4-10.6.4-.3 0-.7.1-1 .6-.4.7-.2.9.2 1 0 0 8 2.6 8.3 2.7.3 0 .3.2.2.6-.2.4-1.4 2.3-1.6 2.6-.1.2-.2.2-.4.3l-2.8 1c-.1 0-.3.1-.4.3l-.4.6c-.2.3-.1.5.2.5.3.1 2.1.2 2.1.2s.3.1.4.1c.2.1.4.3.2.6-.3.6-.4 1.2-.2 1.3s.6-.2 1-.7c.2-.3.4-.2.6 0 .2-.1.4.1.4.1s.8 1.6 1 1.9c.2.3.4.3.6 0l.4-.6c.1-.1.1-.3.1-.5l-.3-3.1c0-.2 0-.2.1-.5.1-.2 1.4-2.2 1.6-2.5.2-.3.4-.3.6-.1.2.2 5.7 6.7 5.7 6.7.3.3.5.4.9-.2.4-.4.3-.8.2-1z"/></svg>