<?xml version="1.0" encoding="utf-8"?>
<!-- Generator: Adobe Illustrator 21.0.0, SVG Export Plug-In . SVG Version: 6.00 Build 0)  -->
<svg version="1.1" id="Layer_1" xmlns="http://www.w3.org/2000/svg" xmlns:xlink="http://www.w3.org/1999/xlink" x="0px" y="0px"
	 viewBox="0 0 18 18" style="enable-background:new 0 0 18 18;" xml:space="preserve">
<style type="text/css">
	.st0{fill:#606161;}
</style>
<path class="st0" d="M10.3,9l7.4-7.4c0.4-0.4,0.4-0.9,0-1.3s-0.9-0.4-1.3,0L9,7.7L1.6,0.3c-0.4-0.4-0.9-0.4-1.3,0s-0.4,0.9,0,1.3
	L7.7,9l-7.4,7.4c-0.4,0.4-0.4,0.9,0,1.3v0c0.4,0.4,0.9,0.4,1.3,0L9,10.3l7.4,7.4c0.4,0.4,0.9,0.4,1.3,0v0c0.4-0.4,0.4-0.9,0-1.3
	L10.3,9z"/>
</svg>
