<?xml version="1.0" encoding="utf-8"?>
<!-- Generator: Adobe Illustrator 21.0.0, SVG Export Plug-In . SVG Version: 6.00 Build 0)  -->
<svg version="1.1" id="Layer_1" xmlns="http://www.w3.org/2000/svg" xmlns:xlink="http://www.w3.org/1999/xlink" x="0px" y="0px"
	 viewBox="0 0 19 21" style="enable-background:new 0 0 19 21;" xml:space="preserve">
<path d="M18.9,18.9c-0.1-0.3-3.7-10.1-3.7-10.1c0,0,0,0,0,0c-0.1-0.5,0.1-0.7,0.3-1.1c0,0,2.1-3.5,2.8-4.6c0.7-1.2,0.6-2.3-0.1-2.8
	c-0.7-0.5-1.7-0.1-2.5,1c-0.8,1.1-3,4.5-3,4.5c-0.3,0.4-0.4,0.7-0.9,0.8c0,0,0,0,0,0C11.7,6.5,1.5,7,1.2,7c-0.3,0-0.7,0.1-1,0.6
	C-0.2,8.3,0,8.5,0.4,8.6c0,0,8,2.6,8.3,2.7C9,11.3,9,11.5,8.9,11.9c-0.2,0.4-1.4,2.3-1.6,2.6c-0.1,0.2-0.2,0.2-0.4,0.3l-2.8,1
	c-0.1,0-0.3,0.1-0.4,0.3c0,0-0.2,0.3-0.4,0.6c-0.2,0.3-0.1,0.5,0.2,0.5c0.3,0.1,2.1,0.2,2.1,0.2c0,0,0.3,0.1,0.4,0.1
	c0.2,0.1,0.4,0.3,0.2,0.6c-0.3,0.6-0.4,1.2-0.2,1.3s0.6-0.2,1-0.7c0.2-0.3,0.4-0.2,0.6,0C7.8,18.6,8,18.8,8,18.8c0,0,0.8,1.6,1,1.9
	c0.2,0.3,0.4,0.3,0.6,0c0.2-0.3,0.4-0.6,0.4-0.6c0.1-0.1,0.1-0.3,0.1-0.5l-0.3-3.1c0-0.2,0-0.2,0.1-0.5c0.1-0.2,1.4-2.2,1.6-2.5
	c0.2-0.3,0.4-0.3,0.6-0.1c0.2,0.2,5.7,6.7,5.7,6.7c0.3,0.3,0.5,0.4,0.9-0.2C19.1,19.5,19,19.1,18.9,18.9z"/>
</svg>
