<?xml version="1.0" encoding="utf-8"?>
<!-- Generator: Adobe Illustrator 21.0.0, SVG Export Plug-In . SVG Version: 6.00 Build 0)  -->
<svg version="1.1" id="Layer_1" xmlns="http://www.w3.org/2000/svg" xmlns:xlink="http://www.w3.org/1999/xlink" x="0px" y="0px"
	 viewBox="0 0 32 16.1" style="enable-background:new 0 0 32 16.1;" xml:space="preserve">
<style type="text/css">
	.st0{fill:#010101;}
</style>
<path class="st0" d="M27.6,2.1H10L10,0L0,3l10,2.9l0-1.8h17.6c0.4,0,2.4,0,2.4,2v6.1c0,0.5-0.1,0.9-0.4,1.2C29,14,28,14.1,27.6,14.1
	H4v2h23.6c0,0,0,0,0.1,0c0.4,0,2.1-0.1,3.2-1.2c0.7-0.7,1.1-1.6,1.1-2.7V6.1C32,4.1,29.4,2.1,27.6,2.1z"/>
</svg>
