<?xml version="1.0" encoding="utf-8"?>
<!-- Generator: Adobe Illustrator 21.0.0, SVG Export Plug-In . SVG Version: 6.00 Build 0)  -->
<svg version="1.1" id="Layer_1" xmlns="http://www.w3.org/2000/svg" xmlns:xlink="http://www.w3.org/1999/xlink" x="0px" y="0px"
	 viewBox="0 0 18 14" style="enable-background:new 0 0 18 14;" xml:space="preserve">
<style type="text/css">
	.st0{fill:#231F20;}
</style>
<g>
	<g>
		<g>
			<path class="st0" d="M14.9,1.8c1.2-1,0.9-1.8-0.7-1.8H3.7C2.2,0,1.9,0.8,3.1,1.8l3.7,3.1c1.2,1,3.2,1,4.4,0L14.9,1.8z"/>
		</g>
		<g>
			<path class="st0" d="M11.9,7.1c-1.2,1-2.2,1.8-2.2,1.8c0,0,0,0,0,0C9.6,9,9.5,9,9.4,9c0,0-0.1,0-0.1,0C9.2,9.1,9.1,9.1,9,9.1
				c0,0,0,0,0,0c0,0,0,0,0,0l0,0c0,0,0,0,0,0c-0.1,0-0.2,0-0.3-0.1c0,0-0.1,0-0.1,0C8.5,9,8.4,9,8.3,8.9c0,0,0,0,0,0
				c0,0-1-0.8-2.2-1.8L2.2,3.8C1,2.8,0,3.3,0,4.8v6.3C0,12.7,1.3,14,2.8,14h12.3c1.6,0,2.8-1.3,2.8-2.8V4.8c0-1.6-1-2-2.2-1
				L11.9,7.1z"/>
		</g>
	</g>
</g>
</svg>
