<?xml version="1.0" encoding="utf-8"?>
<!-- Generator: Adobe Illustrator 21.0.0, SVG Export Plug-In . SVG Version: 6.00 Build 0)  -->
<svg version="1.1" id="Layer_1" xmlns="http://www.w3.org/2000/svg" xmlns:xlink="http://www.w3.org/1999/xlink" x="0px" y="0px"
	 viewBox="0 0 30 15.8" style="enable-background:new 0 0 30 15.8;" xml:space="preserve">
<g>
	<path d="M23.9,15.8c-0.4,0-1.2-0.1-2.1-0.6c-0.6-0.4-1.2-1-1.8-1.5c-0.4-0.4-1.2-1.2-1.4-1.2c-0.3,0.1-0.5,0.9-0.5,1.6
		c0,0.1,0,0.8-0.5,1.2c-0.4,0.4-1.1,0.5-1.2,0.5l-1.9,0c-1,0-4.4-0.2-7.4-3c-3.7-3.4-6.8-9.8-7-10.1C0,2.2-0.1,1.5,0.3,1.1
		c0.4-0.4,1.1-0.5,1.4-0.5l4.1,0l0.1,0c0.1,0,0.6,0.1,1,0.3c0.4,0.2,0.6,0.7,0.6,0.7c0,0,0.6,1.4,1.5,2.7c1.3,2,1.9,2.5,2.1,2.6
		c0.2-0.4,0.3-1.7,0.2-2.9c0-0.5-0.1-1.1-0.3-1.3c-0.1-0.1-0.4-0.3-0.8-0.3L9.5,1.8c-0.1-0.7,0.6-1.2,1.1-1.4
		C11.3,0.1,12.4,0,13.7,0l0.7,0c1.2,0,1.6,0.1,2.1,0.2c1.7,0.4,1.6,1.7,1.6,3.3c0,0.5,0,1,0,1.6c0,0.2,0,0.3,0,0.5
		c0,0.4,0,1,0.1,1.3c0.2-0.1,0.9-0.7,2.1-2.5c0.8-1.2,1.4-2.5,1.5-2.8l0,0c0.2-0.4,0.6-0.9,1.6-0.9l4.3,0c0,0,0.2,0,0.4,0
		c1,0,1.6,0.3,1.8,0.9c0.3,0.6,0.2,1.7-2.4,4.6c-0.4,0.4-0.7,0.8-1,1.1c-0.6,0.7-1.2,1.4-1.2,1.6C25.4,9,26,9.5,26.6,10
		c1.5,1.2,2.5,2.3,3,3.1c0.5,0.8,0.4,1.3,0.3,1.7c-0.4,0.9-1.6,1-1.9,1l-3.8,0C24.1,15.8,24.1,15.8,23.9,15.8z M18.6,10.9
		c0.9,0,1.7,0.8,2.5,1.6c0.5,0.5,1,1,1.5,1.3c0.7,0.4,1.3,0.4,1.4,0.4l0.1,0l3.8,0c0.2,0,0.4-0.1,0.5-0.1c0,0,0-0.1-0.1-0.2
		c-0.4-0.7-1.4-1.7-2.7-2.7c-1.2-1-1.8-1.5-1.9-2.2c-0.1-0.8,0.5-1.4,1.6-2.7c0.3-0.3,0.6-0.7,1-1.1c1.6-1.8,2-2.6,2.1-3
		c-0.2,0-0.6,0-0.7,0l-4.4,0c-0.2,0-0.2,0-0.2,0c-0.2,0.4-0.8,1.8-1.6,3c-1.9,2.8-2.8,3.2-3.4,3.2c-0.2,0-0.4,0-0.6-0.1
		c-1-0.6-1-1.8-0.9-2.8c0-0.1,0-0.3,0-0.4c0-0.6,0-1.2,0-1.7c0.1-1.7,0-1.7-0.4-1.8c-0.4-0.1-0.7-0.1-1.9-0.2l-0.7,0
		c-0.6,0-1.3,0-1.9,0.1c0.1,0.1,0.2,0.2,0.3,0.3c0.6,0.7,0.6,2,0.6,2.2c0.1,1.6,0.1,3.8-1,4.3c-0.2,0.1-0.4,0.1-0.6,0.1
		c-0.9,0-1.9-0.9-3.4-3.3C6.8,3.9,6.1,2.4,6.1,2.3c0,0-0.1-0.1-0.1-0.1C5.9,2.2,5.8,2.1,5.7,2.1l-4,0c0,0,0,0-0.1,0
		C2.2,3.3,5,8.7,8.1,11.6c2.7,2.5,5.8,2.6,6.4,2.6l1.9,0c0,0,0.2-0.1,0.3-0.1c0,0,0-0.1,0-0.1c0-0.3,0-2.6,1.6-3
		C18.4,10.9,18.5,10.9,18.6,10.9z"/>
</g>
</svg>
